# xmcd
#
# Track frame offsets:
#	150
#	17296
#	32440
#	56303
#	76093
#	104243
#	122201
#	147029
#	168499
#	188472
#	218287
#	236849
#	260088
#	287531
#	310593
#	325173
#
# Disc length: 4796 seconds
#
# Revision: 1
# Processed by: cddbd v1.5.2PL0 Copyright (c) Steve Scherf et al.
# Submitted via: EZCDAudioConverter 2.4.0.1
#
DISCID=cb12ba10
DTITLE=Akella Presents - vol.76 - Various Styles Of Blues  CD2
DYEAR=2016
DGENRE=Blues
TTITLE0=The Bluesbones - Allergic To Work
TTITLE1=Randall Bramblett - Roll
TTITLE2=Tinsley Ellis - Surrender
TTITLE3=Philipp Fankhauser - Blues Ainґt Nothin
TTITLE4=Bluebone - Drownin'
TTITLE5=Jimmy Burns - Snaggletooth Mule
TTITLE6=The Mighty Bosscats - Blues
TTITLE7=Harmonica Henry and The Blues Rockers - Please Don't Go
TTITLE8=Larry Mccray - Big Black Hole
TTITLE9=Jim Kohler Band - Marriage
TTITLE10=The Five Dollar Sugar - First Train
TTITLE11=Larry Garner - For You Mr. King
TTITLE12=The Homemade Jamz Blues Band - Boom Boom
TTITLE13=Van Wilks - 21st Century Blues
TTITLE14=Tim Turner - Mary Had A Little Lamb
TTITLE15=Aidan - Livin' A Good Life
EXTD=
EXTT0=
EXTT1=
EXTT2=
EXTT3=
EXTT4=
EXTT5=
EXTT6=
EXTT7=
EXTT8=
EXTT9=
EXTT10=
EXTT11=
EXTT12=
EXTT13=
EXTT14=
EXTT15=
PLAYORDER=
